<mxfile host="Electron" modified="2023-09-29T03:14:23.493Z" agent="Mozilla/5.0 (X11; Linux x86_64) AppleWebKit/537.36 (KHTML, like Gecko) draw.io/21.4.0 Chrome/112.0.5615.204 Electron/24.5.1 Safari/537.36" etag="yUUN1celYyFeH1ZEj0BI" version="21.4.0" type="device" pages="2">
  <diagram name="user-shell-sys" id="1YrbENdjiotpIdek0drF">
    <mxGraphModel dx="884" dy="663" grid="1" gridSize="10" guides="1" tooltips="1" connect="1" arrows="1" fold="1" page="1" pageScale="1" pageWidth="850" pageHeight="1100" math="0" shadow="0">
      <root>
        <mxCell id="0" />
        <mxCell id="1" parent="0" />
        <mxCell id="t6OyJ-Y1lArUCfJWtzQ4-4" style="edgeStyle=orthogonalEdgeStyle;rounded=0;orthogonalLoop=1;jettySize=auto;html=1;exitX=1;exitY=0.25;exitDx=0;exitDy=0;entryX=0;entryY=0.25;entryDx=0;entryDy=0;shape=flexArrow;strokeWidth=2;" edge="1" parent="1" source="t6OyJ-Y1lArUCfJWtzQ4-1" target="t6OyJ-Y1lArUCfJWtzQ4-2">
          <mxGeometry relative="1" as="geometry" />
        </mxCell>
        <mxCell id="t6OyJ-Y1lArUCfJWtzQ4-1" value="&lt;font style=&quot;font-size: 30px;&quot;&gt;用户&lt;/font&gt;" style="rounded=1;whiteSpace=wrap;html=1;" vertex="1" parent="1">
          <mxGeometry x="80" y="200" width="120" height="80" as="geometry" />
        </mxCell>
        <mxCell id="t6OyJ-Y1lArUCfJWtzQ4-5" style="edgeStyle=orthogonalEdgeStyle;rounded=0;orthogonalLoop=1;jettySize=auto;html=1;exitX=1;exitY=0.25;exitDx=0;exitDy=0;entryX=0;entryY=0.25;entryDx=0;entryDy=0;shape=flexArrow;strokeWidth=2;" edge="1" parent="1" source="t6OyJ-Y1lArUCfJWtzQ4-2" target="t6OyJ-Y1lArUCfJWtzQ4-3">
          <mxGeometry relative="1" as="geometry" />
        </mxCell>
        <mxCell id="t6OyJ-Y1lArUCfJWtzQ4-7" style="edgeStyle=orthogonalEdgeStyle;rounded=0;orthogonalLoop=1;jettySize=auto;html=1;exitX=0;exitY=0.75;exitDx=0;exitDy=0;entryX=1;entryY=0.75;entryDx=0;entryDy=0;strokeWidth=2;shape=flexArrow;" edge="1" parent="1" source="t6OyJ-Y1lArUCfJWtzQ4-2" target="t6OyJ-Y1lArUCfJWtzQ4-1">
          <mxGeometry relative="1" as="geometry" />
        </mxCell>
        <mxCell id="t6OyJ-Y1lArUCfJWtzQ4-2" value="&lt;font style=&quot;font-size: 30px;&quot;&gt;Shell&lt;/font&gt;" style="rounded=1;whiteSpace=wrap;html=1;" vertex="1" parent="1">
          <mxGeometry x="320" y="200" width="120" height="80" as="geometry" />
        </mxCell>
        <mxCell id="t6OyJ-Y1lArUCfJWtzQ4-6" style="edgeStyle=orthogonalEdgeStyle;rounded=0;orthogonalLoop=1;jettySize=auto;html=1;exitX=0;exitY=0.75;exitDx=0;exitDy=0;entryX=1;entryY=0.75;entryDx=0;entryDy=0;shape=flexArrow;strokeWidth=2;" edge="1" parent="1" source="t6OyJ-Y1lArUCfJWtzQ4-3" target="t6OyJ-Y1lArUCfJWtzQ4-2">
          <mxGeometry relative="1" as="geometry" />
        </mxCell>
        <mxCell id="t6OyJ-Y1lArUCfJWtzQ4-3" value="&lt;font style=&quot;font-size: 30px;&quot;&gt;操作系统&lt;/font&gt;" style="rounded=1;whiteSpace=wrap;html=1;" vertex="1" parent="1">
          <mxGeometry x="560" y="200" width="160" height="80" as="geometry" />
        </mxCell>
        <mxCell id="t6OyJ-Y1lArUCfJWtzQ4-8" value="&lt;font style=&quot;font-size: 19px;&quot;&gt;命令&lt;/font&gt;" style="text;html=1;strokeColor=none;fillColor=none;align=center;verticalAlign=middle;whiteSpace=wrap;rounded=0;" vertex="1" parent="1">
          <mxGeometry x="230" y="170" width="60" height="30" as="geometry" />
        </mxCell>
        <mxCell id="t6OyJ-Y1lArUCfJWtzQ4-9" value="&lt;font style=&quot;font-size: 19px;&quot;&gt;命令&lt;/font&gt;" style="text;html=1;strokeColor=none;fillColor=none;align=center;verticalAlign=middle;whiteSpace=wrap;rounded=0;" vertex="1" parent="1">
          <mxGeometry x="470" y="170" width="60" height="30" as="geometry" />
        </mxCell>
        <mxCell id="t6OyJ-Y1lArUCfJWtzQ4-10" value="&lt;font style=&quot;font-size: 19px;&quot;&gt;结果&lt;/font&gt;" style="text;html=1;strokeColor=none;fillColor=none;align=center;verticalAlign=middle;whiteSpace=wrap;rounded=0;" vertex="1" parent="1">
          <mxGeometry x="470" y="280" width="60" height="30" as="geometry" />
        </mxCell>
        <mxCell id="t6OyJ-Y1lArUCfJWtzQ4-11" value="&lt;font style=&quot;font-size: 19px;&quot;&gt;结果&lt;/font&gt;" style="text;html=1;strokeColor=none;fillColor=none;align=center;verticalAlign=middle;whiteSpace=wrap;rounded=0;" vertex="1" parent="1">
          <mxGeometry x="230" y="280" width="60" height="30" as="geometry" />
        </mxCell>
      </root>
    </mxGraphModel>
  </diagram>
  <diagram id="h5aLWpniEGRGMFrudjq1" name="Page-2">
    <mxGraphModel dx="884" dy="663" grid="1" gridSize="10" guides="1" tooltips="1" connect="1" arrows="1" fold="1" page="1" pageScale="1" pageWidth="850" pageHeight="1100" math="0" shadow="0">
      <root>
        <mxCell id="0" />
        <mxCell id="1" parent="0" />
      </root>
    </mxGraphModel>
  </diagram>
</mxfile>
